<?xml version="1.0" encoding="UTF-8" standalone="no"?>
<svg
   xmlns:dc="http://purl.org/dc/elements/1.1/"
   xmlns:cc="http://creativecommons.org/ns#"
   xmlns:rdf="http://www.w3.org/1999/02/22-rdf-syntax-ns#"
   xmlns:svg="http://www.w3.org/2000/svg"
   xmlns="http://www.w3.org/2000/svg"
   xmlns:sodipodi="http://sodipodi.sourceforge.net/DTD/sodipodi-0.dtd"
   xmlns:inkscape="http://www.inkscape.org/namespaces/inkscape"
   viewBox="0 0 700.00002 699.99998"
   version="1.1"
   id="svg10"
   sodipodi:docname="milwaukee-brewers-logo.svg"
   width="700"
   height="700"
   inkscape:export-filename="G:\Users\suitedoalex\sites\milwaukee-brewers-logo-0.png"
   inkscape:export-xdpi="561.73712"
   inkscape:export-ydpi="561.73712"
   inkscape:version="0.92.4 (5da689c313, 2019-01-14)">
  <metadata
     id="metadata16">
    <rdf:RDF>
      <cc:Work
         rdf:about="">
        <dc:format>image/svg+xml</dc:format>
        <dc:type
           rdf:resource="http://purl.org/dc/dcmitype/StillImage" />
        <dc:title></dc:title>
      </cc:Work>
    </rdf:RDF>
  </metadata>
  <defs
     id="defs14" />
  <sodipodi:namedview
     pagecolor="#ffffff"
     bordercolor="#666666"
     borderopacity="1"
     objecttolerance="10"
     gridtolerance="10"
     guidetolerance="10"
     inkscape:pageopacity="0"
     inkscape:pageshadow="2"
     inkscape:window-width="1600"
     inkscape:window-height="837"
     id="namedview12"
     showgrid="false"
     inkscape:zoom="0.68736127"
     inkscape:cx="142.8643"
     inkscape:cy="426.07159"
     inkscape:window-x="-8"
     inkscape:window-y="-8"
     inkscape:window-maximized="1"
     inkscape:current-layer="svg10" />
  <path
     d="m 543.6131,261.80691 v 53.313 c 0,44.49603 -7.27813,71.45168 -42.21608,145.33843 -36.78949,77.78434 -82.1522,100.8818 -136.44021,100.8818 -35.68891,0 -69.25298,-11.75678 -96.36375,-33.47051 l -0.24375,0.0911 -6.04705,-5.41674 -1.12028,-0.98732 c -7.69668,-6.87187 -14.25093,-14.2731 -19.90158,-21.87623 a 66.734196,66.734196 0 0 1 -1.39604,-1.89339 c -0.0812,-0.10341 -0.17235,-0.21421 -0.22405,-0.32501 -0.34717,-0.45796 -0.67217,-0.92577 -1.00702,-1.38373 a 151.5012,151.5012 0 0 1 -8.92777,-14.19185 27.888808,27.888808 0 0 1 -0.88638,-1.57824 c -8.92776,-16.08524 -14.82216,-32.08678 -19.76862,-45.48335 -1.41574,-3.82865 -2.74777,-7.44309 -4.06009,-10.80147 -10.24256,-26.31549 -30.0752,-77.73509 -39.67514,-103.65172 -9.97664,-26.90641 -11.50318,-46.00286 -5.11881,-63.86825 6.83986,-19.11862 22.14214,-34.41843 43.01135,-51.48854 20.9086,-17.11196 38.84539,-31.31366 63.63434,-49.20859 15.52387,-11.21265 32.17788,-17.14644 48.15971,-17.14644 6.76846,0 13.16267,1.08828 19.02506,3.22789 1.04888,0.38655 2.20855,0.80266 3.7277,1.37388 5.38473,2.0362 10.16869,4.80366 14.2928,8.21374 0.42841,-0.24375 0.83467,-0.48997 1.23107,-0.72387 11.38992,-6.65766 24.17835,-10.16869 36.97416,-10.16869 10.11945,0 20.03454,2.18885 28.68654,6.32034 1.8737,0.89623 2.96197,1.44529 4.20536,2.11745 l 2.179,1.13013 c 6.80047,3.48149 12.65301,7.94045 17.37788,13.12328 7.57358,-2.53602 14.92311,-3.8188 21.93778,-3.8188 10.67836,0 20.66486,2.92257 29.68372,8.66432 l 2.14946,1.36403 c 4.12165,2.62712 6.1997,3.93944 9.40543,6.18 24.45902,16.92977 37.71526,35.67168 37.71526,86.14335"
     id="path2"
     inkscape:connector-curvature="0"
     style="fill:#ffc52f;stroke-width:2.46215296"
     inkscape:export-filename="G:\Users\suitedoalex\sites\milwaukee-brewers-logo-4.png"
     inkscape:export-xdpi="99.166847"
     inkscape:export-ydpi="99.166847" />
  <path
     d="m 496.86666,188.71544 c -3.44209,-2.38091 -5.44628,-3.62429 -11.05507,-7.20673 -10.90241,-6.95312 -25.35771,-9.24292 -45.0771,-0.42841 -1.30248,0.58107 -2.52617,1.12028 -3.72523,1.65949 -4.38756,-8.98932 -12.1655,-15.01421 -18.89457,-18.4563 -2.76007,-1.41574 -3.52334,-1.8737 -6.00765,-3.05553 -13.38673,-6.40406 -32.73925,-7.32983 -50.80653,3.22788 -3.63414,2.11745 -8.38855,4.93662 -12.48065,7.34953 -4.17335,-7.12547 -10.60696,-11.41208 -16.64416,-13.69203 -1.44528,-0.53922 -2.55571,-0.94793 -3.57258,-1.31479 -13.33502,-4.86522 -32.8402,-2.27996 -52.44632,11.86019 -23.34121,16.86821 -40.47533,30.29679 -62.87108,48.62998 -40.9653,33.52468 -49.66901,52.7861 -33.06425,97.56774 9.11982,24.62399 28.48219,74.88392 39.57911,103.40797 6.3622,16.34869 13.01002,37.55522 25.01301,58.02556 h 0.01 a 157.62704,157.62704 0 0 0 3.43224,5.59893 c 0.31516,0.48997 0.65001,0.96763 0.96763,1.44529 5.45613,8.27529 11.93159,16.28714 19.72923,23.71792 0.62046,0.59091 1.25077,1.20153 1.88354,1.7826 0.32501,0.29545 0.61062,0.60076 0.93562,0.88637 l 0.0296,-0.032 c 24.44179,22.25294 56.81418,35.78247 93.15802,35.78247 66.66772,0 120.71198,-54.05657 120.71198,-120.70213 v -0.13295 c 0,-63.63435 -51.58211,-115.21645 -115.21645,-115.21645 -34.57109,0 -69.30469,19.98283 -89.78734,51.50085 a 62557.488,62557.488 0 0 0 -41.3814,-101.08616 c -7.55389,-18.3849 -5.82299,-27.69923 5.71958,-38.39728 5.8944,-5.46598 13.06172,-10.93442 21.02186,-16.329 8.13249,-5.50784 17.30647,-2.26026 17.30647,8.4895 v 113.85981 c 18.5671,-18.74191 41.33955,-30.9468 70.50622,-36.33153 L 353.39208,197.136 c 2.07805,-1.28278 4.02069,-2.47446 5.47829,-3.31898 7.44062,-4.31616 12.76626,0.46781 12.76626,7.40123 v 87.50738 c 0.45796,0 0.92577,-0.0197 1.38373,-0.0197 a 133.23695,133.23695 0 0 1 67.45315,18.28395 v -98.0971 c 1.86138,-0.75342 3.61444,-1.45513 4.96862,-1.99434 7.45294,-2.96197 12.4905,1.65949 12.4905,8.3984 0,6.73891 -0.51951,103.99642 -0.51951,103.99642 27.38406,22.58779 45.15835,55.83671 47.95782,93.32053 13.06172,-27.80264 22.36619,-53.69956 22.36619,-97.49388 v -53.313 c -0.005,-44.39262 -10.07266,-58.69527 -30.87047,-73.09147 M 369.40592,356.71552 c 38.42928,0 69.57798,31.16101 69.57798,69.58045 0,38.41944 -31.15116,69.58044 -69.57798,69.58044 -38.41944,0 -69.5706,-31.161 -69.5706,-69.58044 0,-38.41944 31.1487,-69.58045 69.5706,-69.58045"
     id="path4"
     inkscape:connector-curvature="0"
     style="fill:#12284b;stroke-width:2.46215296"
     inkscape:export-filename="G:\Users\suitedoalex\sites\milwaukee-brewers-logo-4.png"
     inkscape:export-xdpi="99.166847"
     inkscape:export-ydpi="99.166847" />
  <path
     d="m 316.64198,426.29843 c 0,-12.62346 4.44911,-24.21774 11.86019,-33.31785 14.75076,19.66768 14.75076,46.96064 0,66.62832 a 52.571892,52.571892 0 0 1 -11.86019,-33.31047 m 21.08342,42.19638 c 19.41407,-24.6757 19.41407,-59.72445 0.01,-84.40014 a 52.468481,52.468481 0 0 1 31.66822,-10.60696 52.517725,52.517725 0 0 1 31.68052,10.60696 c -19.41408,24.67569 -19.41408,59.72444 0,84.40014 a 52.502952,52.502952 0 0 1 -31.68052,10.60696 52.500489,52.500489 0 0 1 -31.67806,-10.60696 m 72.58427,-8.88837 c -14.75076,-19.66768 -14.75076,-46.96065 0,-66.62833 7.41108,9.10012 11.87004,20.6944 11.87004,33.31786 0,12.62346 -4.45896,24.21035 -11.87004,33.31047"
     id="path6"
     inkscape:connector-curvature="0"
     style="fill:#ffffff;stroke-width:2.46215296"
     inkscape:export-filename="G:\Users\suitedoalex\sites\milwaukee-brewers-logo-4.png"
     inkscape:export-xdpi="99.166847"
     inkscape:export-ydpi="99.166847" />
  <path
     d="m 498.3538,522.41596 h -5.0548 v 13.79298 h -3.41255 v -13.79298 h -5.06218 v -2.99644 h 13.52953 z m 22.97189,13.79298 h -3.41255 v -13.3621 h -0.0911 l -4.87014,13.3621 h -3.32144 l -4.67809,-13.3621 h -0.0911 v 13.3621 h -3.44209 v -16.78942 h 5.95595 l 3.90743,10.96151 h 0.0911 l 4.06502,-10.96151 h 5.88454 v 16.78942 z"
     id="path8"
     inkscape:connector-curvature="0"
     style="fill:#ffc52f;stroke-width:2.46215296"
     inkscape:export-filename="G:\Users\suitedoalex\sites\milwaukee-brewers-logo-4.png"
     inkscape:export-xdpi="99.166847"
     inkscape:export-ydpi="99.166847" />
</svg>
